<?xml version="1.0" standalone="no"?>
<!DOCTYPE svg PUBLIC "-//W3C//DTD SVG 20010904//EN"
 "http://www.w3.org/TR/2001/REC-SVG-20010904/DTD/svg10.dtd">
<svg version="1.0" xmlns="http://www.w3.org/2000/svg"
 width="195.000000pt" height="195.000000pt" viewBox="0 0 195.000000 195.000000"
 preserveAspectRatio="xMidYMid meet">

<g transform="translate(0.000000,195.000000) scale(0.100000,-0.100000)"
fill="#000000" stroke="none">
<path fill="#E31837" d="M430 1839 c-72 -14 -186 -75 -243 -132 -146 -143 -167 -344 -52 -514
19 -28 154 -163 305 -302 l270 -251 199 0 c159 0 200 3 204 14 8 20 -69 95
-605 591 -130 120 -149 150 -129 215 6 20 20 45 30 54 47 42 78 45 494 46
l397 0 0 -39 c0 -23 6 -44 15 -51 13 -11 22 -8 53 21 90 84 193 181 267 252
76 74 79 78 61 92 -17 13 -105 15 -620 14 -331 -1 -621 -5 -646 -10z"/>
<path d="M810 1317 c0 -17 93 -109 371 -367 204 -190 375 -355 380 -368 18 -47 
10 -73 -35 -118 l-43 -44 -421 0 -421 0 -3 52 c-2 29 -8 53 -15 55 -20 7 -406 
-362 -400 -381 7 -22 191 -27 747 -22 600 6 602 6 700 56 63 32 125 102 167 188 
37 74 38 79 38 186 0 104 -2 115 -29 163 -40 73 -119 151 -408 403 l-252 220 -188 
0 -188 0 0 -23z m620 -220 c398 -348 425 -383 425 -547 0 -86 -3 -102 -32 -163 -43 
-90 -117 -167 -196 -203 -59 -27 -73 -28 -252 -35 -230 -9 -868 -9 -1019 0 l-109 6 
180 173 c99 94 183 172 187 172 3 0 6 -22 6 -50 l0 -50 436 0 437 0 48 49 c44 43 49 
53 49 93 0 51 -18 79 -95 149 -216 197 -661 613 -663 620 -2 5 73 9 170 9 
l173 0 255 -223z" fill="#fff"/>
</g>
</svg>
