<svg version="1.2" xmlns="http://www.w3.org/2000/svg" viewBox="0 0 567 40" width="567" height="40"><style>.a{fill:#fff}</style><path class="a" d="m345.9 39.4v-28.9h27.5v6.5h-19.3v7h16.9v6.2h-16.8v9.2z"/><path class="a" d="m377.8 10.5h8.3v28.9h-8.3z"/><path class="a" d="m392.7 39.4v-29h7.3l16 18.4v-18.3h7.4v29h-7.3l-16-17.7v17.6z"/><path fill-rule="evenodd" class="a" d="m427.1 39.4l13.1-29h9.1l13.1 29h-9.3l-2.3-5.3h-12.7l-2.2 5.3zm13-11.2h8.7l-4.4-11.5z"/><path class="a" d="m466.1 39.4v-29h7.4l15.9 18.4v-18.3h7.5v29h-7.4l-15.9-17.7v17.6z"/><path class="a" d="m502.1 25.6q0-5.4 2.1-8.8 2.1-3.4 6.3-5.1 4.1-1.6 10.2-1.6 2 0 3.6 0.1 1.7 0.1 3.1 0.3 1.4 0.1 2.7 0.4 1.4 0.3 2.8 0.7l-1.7 5.9q-1.8-0.4-3.4-0.6-1.7-0.2-3.3-0.3-1.6-0.2-3.3-0.2-2.8 0-4.8 0.5-2 0.6-3.3 1.6-1.3 1.1-1.9 2.8-0.6 1.7-0.6 4.1 0 2.2 0.6 3.8 0.6 1.5 1.9 2.5 1.2 1 3.2 1.4 1.9 0.5 4.7 0.5 2.7 0 5.7-0.3 2.9-0.4 5.6-1l1.5 5.7q-1.4 0.4-2.9 0.8-1.4 0.3-3.1 0.5-1.7 0.3-3.7 0.4-1.9 0.2-4.4 0.2-4.3 0-7.6-0.9-3.2-0.8-5.5-2.5-2.2-1.6-3.3-4.4-1.2-2.7-1.2-6.5z"/><path class="a" d="m538.3 39.4v-28.9h27.7v6.3h-19.5v4.9h18.4v5.8h-18.4v5.7h20.5v6.2z"/><path fill-rule="evenodd" class="a" d="m69.5 10.6h22.1c5 0 9.1 3.9 9.1 8.7v20.1h-33c-3.1 0-5.6-2.4-5.6-5.3q0-3.5 0-7c0-2.7 2.3-5 5.2-5h18.3l-2 4.1h-13.4c-0.6 0-1.3 0.5-1.3 1.1q0 2.7 0 5.5c0 0.6 0.7 1 1.3 1h23.3v-13.1c0-2.6-2.2-4.5-4.8-4.5h-21.9zm181.4-10.5v39.3h-32.2c-3 0-5.5-2.4-5.5-5.3q0-7.4 0-14.8c0-4.8 4.1-8.7 9.1-8.7h18.3l-2.7 5.6h-12.8c-2.5 0-4.8 1.9-4.8 4.5q0 6 0 12.1c0 0.6 0.6 1 1.2 1h22.3v-33.7zm-113.1 20.6c0-2.6-2.3-4.5-4.8-4.5h-15l2.7-5.6h15.1c5 0 9.1 3.9 9.1 8.7q0 10.1 0 20.1h-7.1zm-22.5-20.6v39.4h-7.2v-39.4zm-66.5 20.6c0-2.5-2.3-4.5-4.8-4.5-3 0-8.2 0-11.2 0-0.6 0-1.3 0.5-1.3 1.1v22.2h-7.1v-22.2c0-0.6-0.6-1.1-1.2-1.1-4.2 0-10.6 0-14.8 0-0.6 0-1.2 0.5-1.2 1.1v22.2h-7.1v-28.9c14 0 32.6 0 46.7 0 5 0 9.1 4 9.1 8.8q0 10.1 0 20.1h-7.1zm236.6-4.5h-12.3c-2.6 0-4.8 2-4.8 4.5q0 9.4 0 18.8h-7.2v-20.1c0-4.8 4.1-8.8 9.1-8.8h17.9zm-88.5-5.6c5 0 9.1 4 9.1 8.8v20.1h-7.1q0-9.4 0-18.8c0-2.5-2.3-4.5-4.8-4.5h-17.2v23.3h-7.1v-28.9q13.5 0 27.1 0zm-43.1 1.8l7.2-4v31.1h-7.2zm0-4.1v-8.3h7.2v4.3zm139.2 2.2h22.1c5 0 9.1 4 9.1 8.8v20.1h-33c-3.1 0-5.5-2.4-5.5-5.4q0-3.5 0-6.9c0-2.8 2.3-5 5.1-5h18.3l-1.9 4h-13.5c-0.6 0-1.2 0.5-1.2 1.1q0 2.8 0 5.5c0 0.6 0.6 1.1 1.2 1.1h23.4v-13.2c0-2.5-2.3-4.5-4.8-4.5h-22z"/></svg>