<svg width="80" height="80" viewBox="0 0 80 80" fill="none" xmlns="http://www.w3.org/2000/svg">
<path d="M41.907 39.9267C41.9249 39.9713 41.9258 40.0205 41.9097 40.0658C41.8941 40.1096 41.8631 40.1476 41.8223 40.173C41.1524 40.5891 40.6049 41.5223 40.1953 42.9468C39.8578 44.1196 39.7021 45.3343 39.6394 45.9542C39.6354 45.9956 39.602 46.0257 39.5605 46.0257C39.5189 46.0257 39.4857 45.9956 39.4815 45.9542C39.4187 45.334 39.263 44.1186 38.9258 42.9468C38.516 41.5223 37.9686 40.5891 37.2987 40.1729C37.2579 40.1476 37.2269 40.1096 37.2113 40.0656C37.1952 40.0205 37.196 39.9713 37.2139 39.9267L39.4128 34.4563C39.4374 34.3946 39.4941 34.3563 39.5605 34.3563C39.6269 34.3563 39.6836 34.3946 39.7081 34.4563L41.907 39.9267ZM21.4734 73.1856C21.4671 73.1422 21.4439 73.1055 21.4115 73.081C21.379 73.0566 21.3372 73.0444 21.2938 73.0506L14.9029 73.9399C14.8529 73.9468 14.8058 73.9299 14.7723 73.8985C14.7388 73.8672 14.7187 73.8216 14.7222 73.7712L15.2151 66.7082C15.2181 66.6644 15.203 66.6235 15.1764 66.5927C15.1496 66.562 15.1112 66.5414 15.0673 66.5383L8.48104 66.0798C8.42771 66.0761 8.38358 66.0471 8.35775 66.0063C8.33192 65.9657 8.32438 65.9135 8.34379 65.8635L11.1473 58.6274C11.1632 58.5865 11.161 58.5432 11.1446 58.5059C11.1283 58.4688 11.0979 58.4378 11.0571 58.4217L4.19936 55.7242C4.1484 55.7043 4.11489 55.6621 4.10316 55.6145C4.0913 55.5669 4.10121 55.514 4.13695 55.4725L9.6973 49.0004C9.72592 48.9672 9.73835 48.9254 9.73527 48.8849C9.7322 48.8443 9.71377 48.8049 9.68054 48.7763L3.38857 43.3406C3.34627 43.3041 3.32895 43.2518 3.33454 43.2023C3.34012 43.1527 3.36875 43.1057 3.41817 43.0796L11.6642 38.7155C11.7024 38.6952 11.7292 38.6615 11.7414 38.6232C11.7537 38.5848 11.7514 38.5419 11.7319 38.5033L7.46207 30.0301C7.43708 29.9805 7.44071 29.9261 7.4643 29.8825C7.48804 29.839 7.53174 29.8063 7.58689 29.8003L18.0729 28.6537C18.1186 28.6488 18.1575 28.6251 18.183 28.5912C18.2084 28.5574 18.2204 28.5135 18.2123 28.4681C18.1346 28.0308 17.9156 26.7647 17.6696 25.0235C17.4235 23.2823 17.1502 21.0659 16.964 18.7281C16.9588 18.6644 16.919 18.6161 16.8682 18.5937C16.8172 18.5714 16.7551 18.575 16.7052 18.615C12.5276 21.9651 9.10124 26.2135 6.71941 31.0674C4.33745 35.9212 3 41.3806 3 47.1522C3 54.0839 4.92917 60.5649 8.2797 66.0879C11.6304 71.6108 16.4025 76.1756 22.0885 79.2747C22.1461 79.3061 22.2093 79.2976 22.2558 79.2652C22.3023 79.2327 22.3322 79.1761 22.323 79.1113L21.4734 73.1856ZM16.3192 33.6489C16.3192 32.6159 15.4819 31.7786 14.4491 31.7786C13.4162 31.7786 12.579 32.6159 12.579 33.6489C12.579 34.6816 13.4162 35.519 14.4491 35.519C15.4819 35.519 16.3192 34.6816 16.3192 33.6489ZM12.287 43.9716C12.287 42.9937 11.4942 42.2009 10.5163 42.2009C9.53841 42.2009 8.74563 42.9937 8.74563 43.9716C8.74563 44.9495 9.53841 45.7423 10.5163 45.7423C11.4942 45.7423 12.287 44.9495 12.287 43.9716ZM8.81614 54.0976C8.81614 55.0205 9.56438 55.7688 10.4874 55.7688C11.4103 55.7688 12.1586 55.0205 12.1586 54.0976C12.1586 53.1746 11.4103 52.4263 10.4874 52.4263C9.56438 52.4263 8.81614 53.1746 8.81614 54.0976ZM13.4787 64.4962C14.3578 64.4962 15.0703 63.7837 15.0703 62.9046C15.0703 62.0257 14.3578 61.3131 13.4787 61.3131C12.5996 61.3131 11.887 62.0257 11.887 62.9046C11.887 63.7837 12.5996 64.4962 13.4787 64.4962ZM17.0443 69.8122C17.0443 70.6473 17.7212 71.3242 18.5562 71.3242C19.3913 71.3242 20.0682 70.6473 20.0682 69.8122C20.0682 68.9771 19.3913 68.3001 18.5562 68.3001C17.7212 68.3001 17.0443 68.9771 17.0443 69.8122ZM72.399 31.0674C70.0172 26.2135 66.5909 21.9651 62.4131 18.615C62.3632 18.575 62.3012 18.5714 62.2503 18.5937C62.1993 18.6161 62.1596 18.6644 62.1545 18.7281C61.9681 21.0659 61.695 23.2823 61.4488 25.0235C61.2028 26.7647 60.9839 28.0309 60.9061 28.4682C60.898 28.5135 60.91 28.5574 60.9354 28.5912C60.9608 28.6251 60.9998 28.6488 61.0456 28.6537L71.5316 29.8003C71.5867 29.8063 71.6304 29.839 71.6541 29.8825C71.6777 29.9261 71.6814 29.9806 71.6564 30.0301L67.3866 38.5033C67.367 38.5419 67.3648 38.5848 67.3771 38.6232C67.3892 38.6615 67.4159 38.6953 67.4541 38.7155L75.7003 43.0796C75.7497 43.1057 75.7783 43.1527 75.7839 43.2023C75.7895 43.2519 75.7722 43.3041 75.7299 43.3406L69.4378 48.7763C69.4047 48.8049 69.3861 48.8443 69.3832 48.8849C69.3801 48.9254 69.3925 48.9672 69.4211 49.0004L74.9815 55.4725C75.0172 55.514 75.027 55.5669 75.0153 55.6145C75.0034 55.6621 74.97 55.7043 74.9191 55.7242L68.0612 58.4217C68.0204 58.4378 67.99 58.4688 67.9738 58.5059C67.9575 58.5432 67.9552 58.5865 67.9712 58.6274L70.7747 65.8635C70.7941 65.9135 70.7864 65.9657 70.7607 66.0063C70.7349 66.0471 70.6907 66.0762 70.6373 66.0798L64.0511 66.5383C64.0073 66.5414 63.9689 66.562 63.9421 66.5928C63.9153 66.6235 63.9003 66.6644 63.9034 66.7082L64.3963 73.7712C64.3997 73.8216 64.3796 73.8673 64.3461 73.8985C64.3125 73.9299 64.2656 73.9468 64.2154 73.9399L57.8246 73.0506C57.7812 73.0445 57.7395 73.0566 57.7069 73.081C57.6744 73.1055 57.6512 73.1422 57.6451 73.1856L56.7955 79.1113C56.7862 79.1761 56.816 79.2327 56.8626 79.2652C56.9091 79.2976 56.9724 79.3061 57.0299 79.2747C62.7159 76.1756 67.4881 71.6108 70.8386 66.0879C74.1893 60.565 76.1183 54.0839 76.1183 47.1522C76.1183 41.3806 74.781 35.9212 72.399 31.0674ZM64.6694 31.7786C63.6366 31.7786 62.7992 32.6159 62.7992 33.6489C62.7992 34.6817 63.6366 35.519 64.6694 35.519C65.7021 35.519 66.5395 34.6817 66.5395 33.6489C66.5395 32.6159 65.7021 31.7786 64.6694 31.7786ZM70.3727 43.9716C70.3727 42.9937 69.58 42.2009 68.6021 42.2009C67.6242 42.2009 66.8314 42.9937 66.8314 43.9716C66.8314 44.9495 67.6242 45.7423 68.6021 45.7423C69.58 45.7423 70.3727 44.9495 70.3727 43.9716ZM66.9599 54.0976C66.9599 55.0205 67.7081 55.7688 68.631 55.7688C69.5541 55.7688 70.3022 55.0205 70.3022 54.0976C70.3022 53.1746 69.5541 52.4263 68.631 52.4263C67.7081 52.4263 66.9599 53.1746 66.9599 54.0976ZM65.6397 61.3131C64.7607 61.3131 64.0482 62.0257 64.0482 62.9046C64.0482 63.7837 64.7607 64.4962 65.6397 64.4962C66.5187 64.4962 67.2313 63.7837 67.2313 62.9046C67.2313 62.0257 66.5187 61.3131 65.6397 61.3131ZM60.5622 71.3242C61.3973 71.3242 62.0742 70.6473 62.0742 69.8122C62.0742 68.9771 61.3973 68.3001 60.5622 68.3001C59.7271 68.3001 59.0501 68.9771 59.0501 69.8122C59.0501 70.6473 59.7271 71.3242 60.5622 71.3242Z" fill="#FF00A5"/>
<path d="M35.0799 66.2389C35.1016 66.2804 35.1028 66.3261 35.0879 66.3657C35.0729 66.4055 35.0418 66.4393 34.9985 66.457C33.9893 66.872 33.0202 67.4208 32.1016 68.0895C31.183 68.758 30.3149 69.546 29.5076 70.4394C29.4627 70.4891 29.4693 70.551 29.5018 70.5929C29.5344 70.6347 29.5929 70.6563 29.6521 70.6251C30.6634 70.0917 31.7706 69.6582 32.9705 69.326C34.1704 68.9937 35.4632 68.7628 36.846 68.6338C37.254 68.5958 37.7133 68.5088 38.1627 68.2639C38.612 68.019 39.0512 67.616 39.4194 66.9463C39.4498 66.8907 39.5046 66.8629 39.5592 66.8629C39.6139 66.8629 39.6686 66.8907 39.6991 66.9463C40.0671 67.616 40.5065 68.019 40.9558 68.2639C41.4051 68.5088 41.8643 68.5958 42.2725 68.6338C43.6551 68.7628 44.9481 68.9937 46.148 69.326C47.3479 69.6582 48.455 70.0917 49.4662 70.6251C49.5254 70.6563 49.5841 70.6347 49.6166 70.5929C49.6492 70.5511 49.6557 70.4891 49.6109 70.4394C48.8035 69.546 47.9354 68.758 47.0168 68.0894C46.0983 67.4208 45.1291 66.872 44.1198 66.457C44.0767 66.4393 44.0455 66.4055 44.0306 66.3657C44.0156 66.3261 44.0169 66.2803 44.0385 66.2389C46.6037 61.3111 49.8527 54.2498 52.6209 45.6677C55.3891 37.0854 57.6764 26.9823 58.3178 15.9708C58.3213 15.9109 58.3079 15.8522 58.2806 15.8008C58.2536 15.7496 58.2126 15.7056 58.161 15.675C55.4361 14.0613 52.4839 12.7907 49.3638 11.9238C46.2437 11.0567 42.9556 10.5932 39.5592 10.5932C36.1627 10.5932 32.8747 11.0567 29.7546 11.9238C26.6345 12.7907 23.6824 14.0613 20.9575 15.675C20.9058 15.7056 20.8649 15.7496 20.8377 15.8008C20.8106 15.8522 20.7972 15.9109 20.8007 15.9708C21.4421 26.9823 23.7293 37.0854 26.4974 45.6676C29.2656 54.2498 32.5148 61.3111 35.0799 66.2389ZM40.1569 42.9357C39.82 44.107 39.6642 45.3148 39.5999 45.9502C39.5976 45.9741 39.579 45.9861 39.5606 45.9861C39.542 45.9861 39.5236 45.9741 39.521 45.9502C39.4568 45.3148 39.301 44.107 38.9641 42.9357C38.627 41.7644 38.1089 40.6293 37.3196 40.1391C37.2858 40.1181 37.2612 40.0871 37.2487 40.0522C37.2363 40.0173 37.236 39.9785 37.2508 39.9417L39.4497 34.471C39.4698 34.4211 39.5152 34.3961 39.5606 34.3961C39.6058 34.3961 39.6512 34.4211 39.6713 34.471L41.8702 39.9417C41.885 39.9785 41.8847 40.0173 41.8723 40.0524C41.8597 40.0871 41.8352 40.1181 41.8014 40.1391C41.0121 40.6293 40.4939 41.7644 40.1569 42.9357ZM26.9791 17.3461C26.997 17.3424 27.0171 17.3502 27.0245 17.3727C27.2898 18.1712 27.6291 18.9358 28.0344 19.6585C28.4397 20.3812 28.911 21.0617 29.4401 21.6922C29.46 21.716 29.4891 21.7242 29.5157 21.719C29.5423 21.714 29.5662 21.6956 29.5756 21.6661C29.6849 21.3239 30.0138 20.3711 30.6296 19.1905C31.2455 18.0098 32.1483 16.6013 33.4056 15.3471C33.436 15.3168 33.4765 15.3175 33.5055 15.3358C33.5346 15.3541 33.5522 15.3899 33.5369 15.4301C32.9737 16.9068 32.6742 18.6753 32.519 20.2939C32.3638 21.9124 32.3529 23.3811 32.3668 24.2582C32.3675 24.3061 32.4024 24.3331 32.4394 24.3361C32.4762 24.3392 32.5152 24.3185 32.5238 24.2715C32.6848 23.4044 33.0178 21.9471 33.6519 20.3263C34.2857 18.7054 35.2205 16.9213 36.5848 15.4007C36.6155 15.3663 36.6581 15.3677 36.6881 15.388C36.718 15.4084 36.7353 15.4476 36.7155 15.4892C35.7684 17.4767 35.4847 19.7941 35.4575 21.7336C35.4302 23.6731 35.6595 25.2346 35.7385 25.7107C35.7461 25.7562 35.7663 25.7979 35.7956 25.8312C35.8251 25.8647 35.8636 25.8899 35.908 25.9026C36.4879 26.0691 37.0839 26.1969 37.6935 26.283C38.303 26.3693 38.9258 26.4139 39.5592 26.4139C42.4781 26.4139 45.1754 25.4668 47.3612 23.8632C49.5469 22.2598 51.221 19.9997 52.0935 17.3738C52.1009 17.3515 52.1212 17.3437 52.1392 17.3473C52.1571 17.3509 52.1727 17.366 52.1712 17.3895C51.2351 31.1052 49.414 41.5993 47.4406 49.449C45.4672 57.2986 43.3413 62.5037 41.7954 65.6416C41.7797 65.6735 41.7547 65.6976 41.7249 65.7123C41.6951 65.7269 41.6605 65.7322 41.6257 65.7261C41.5189 65.707 41.4118 65.6897 41.3044 65.6736C41.1969 65.6576 41.0893 65.643 40.9812 65.63C40.9372 65.6246 40.8997 65.6025 40.8745 65.5707C40.8493 65.5389 40.8366 65.4974 40.8423 65.4536C41.375 61.3658 41.9977 56.028 42.5552 49.8084C43.1126 43.5887 43.6049 36.4874 43.8764 28.8723C43.8784 28.8187 43.8542 28.7721 43.8168 28.7422C43.7793 28.7123 43.7283 28.6992 43.6764 28.7129C43.0194 28.887 42.346 29.0205 41.6588 29.1105C40.9717 29.2006 40.271 29.247 39.5592 29.247C38.8475 29.247 38.1467 29.2006 37.4595 29.1105C36.7724 29.0205 36.0989 28.887 35.442 28.7129C35.3902 28.6992 35.3392 28.7123 35.3016 28.7422C35.2641 28.7721 35.2399 28.8187 35.2419 28.8723C35.5136 36.4874 36.0058 43.5887 36.5633 49.8084C37.1208 56.028 37.7435 61.3658 38.2762 65.4536C38.2819 65.4974 38.269 65.5389 38.2439 65.5707C38.2186 65.6025 38.1811 65.6246 38.1372 65.63C38.0292 65.643 37.9214 65.6576 37.814 65.6736C37.7066 65.6897 37.5995 65.707 37.4927 65.7261C37.458 65.7322 37.4233 65.7269 37.3936 65.7123C37.3637 65.6976 37.3387 65.6735 37.3231 65.6416C35.7771 62.5036 33.6512 57.2982 31.6777 49.4484C29.7042 41.5986 27.8832 31.1042 26.9472 17.3882C26.9456 17.3648 26.9613 17.3497 26.9791 17.3461ZM26.866 9.7845C26.8359 9.75615 26.8201 9.71245 26.8328 9.66651C27.6066 6.87908 29.2713 4.46249 31.501 2.74275C33.7307 1.02288 36.5254 0 39.5592 0C40.1178 0 40.6683 0.0346267 41.2087 0.101925C41.749 0.169222 42.2793 0.269193 42.7973 0.39988C42.8293 0.407839 42.8497 0.432691 42.8557 0.460616C42.8615 0.4884 42.853 0.519257 42.8269 0.539502C42.5605 0.745725 41.9163 1.27476 41.1653 2.1097C40.4142 2.94451 39.5564 4.08523 38.8627 5.51427C38.8435 5.55406 38.8588 5.59274 38.887 5.61382C38.9152 5.63504 38.9564 5.63867 38.9885 5.60837C40.419 4.26213 41.8984 3.3631 43.1679 2.7676C44.4373 2.17225 45.4966 1.8803 46.0868 1.74836C46.1312 1.73844 46.1653 1.76344 46.1784 1.79653C46.1917 1.82976 46.184 1.87122 46.1449 1.89454C45.7464 2.13106 45.122 2.54854 44.4405 3.18005C43.7589 3.81156 43.0201 4.6574 42.3928 5.75065C42.3708 5.78918 42.3837 5.82856 42.4108 5.85131C42.4378 5.87407 42.4788 5.88008 42.513 5.85187C43.791 4.79214 45.0987 4.18938 46.1561 3.84661C47.2133 3.50397 48.0203 3.42132 48.297 3.40219C48.3299 3.39982 48.3623 3.40428 48.3925 3.41476C48.4227 3.42523 48.4509 3.44184 48.4751 3.46404C49.3744 4.2874 50.1592 5.23376 50.803 6.27633C51.4469 7.31889 51.95 8.45766 52.2855 9.66623C52.2982 9.71217 52.2824 9.75587 52.2521 9.78435C52.2218 9.8127 52.177 9.82582 52.1318 9.8106C50.1575 9.146 48.1134 8.63344 46.0135 8.2869C43.9134 7.94035 41.7574 7.75982 39.5592 7.75982C37.3609 7.75982 35.2049 7.94035 33.1048 8.2869C31.0047 8.63344 28.9607 9.14614 26.9864 9.8106C26.9412 9.82582 26.8963 9.81284 26.866 9.7845ZM54.4857 79.8124C54.4973 79.8728 54.4735 79.9277 54.4324 79.9623C54.3913 79.997 54.3328 80.0112 54.2749 79.9901C52.2337 79.2476 49.938 78.6559 47.461 78.2497C44.9839 77.8436 42.3257 77.623 39.5592 77.623C36.7928 77.623 34.1345 77.8436 31.6575 78.2497C29.1804 78.6559 26.8848 79.2476 24.8435 79.9901C24.7857 80.0112 24.7272 79.997 24.686 79.9623C24.6449 79.9277 24.6212 79.8728 24.6328 79.8124C25.117 77.2997 26.3427 75.0598 28.4203 73.3698C30.4982 71.6796 33.4279 70.5393 37.3204 70.226C37.3815 70.2211 37.4416 70.2344 37.4943 70.2622C37.5469 70.29 37.5919 70.3321 37.6227 70.3852C38.0715 71.1552 38.4567 71.7913 38.7628 72.2854C39.0687 72.7794 39.2954 73.1314 39.4271 73.3328C39.4584 73.3807 39.5088 73.4045 39.5592 73.4045C39.6097 73.4045 39.6601 73.3807 39.6914 73.3328C39.8231 73.1314 40.0498 72.7794 40.3557 72.2854C40.6616 71.7913 41.0468 71.1552 41.4956 70.3852C41.5265 70.3321 41.5716 70.29 41.6242 70.2622C41.6767 70.2344 41.7369 70.2211 41.798 70.226C45.6906 70.5393 48.6203 71.6796 50.698 73.3698C52.7757 75.0598 54.0015 77.2997 54.4857 79.8124Z" fill="#320073"/>
</svg>
