<svg width="1441" height="161" viewBox="0 0 1441 161" fill="none" xmlns="http://www.w3.org/2000/svg">
<path d="M1441 0.175781H1280.89V160.176H1441V0.175781Z" fill="#320073"/>
<path d="M1440.72 46.5705C1435.13 63.3637 1426.62 70.2782 1418.84 78.1833C1411.05 86.0884 1403.99 94.984 1401.27 115.739C1401.24 115.911 1401.11 115.997 1400.97 115.997C1400.84 115.997 1400.7 115.911 1400.68 115.739C1397.96 94.984 1390.89 86.0884 1383.11 78.1833C1375.32 70.2782 1366.82 63.3637 1361.23 46.5705C1361.18 46.4356 1361.06 46.3682 1360.94 46.3682C1360.83 46.3682 1360.71 46.4356 1360.66 46.5705C1355.07 63.3637 1346.57 70.2782 1338.78 78.1833C1331 86.0884 1323.93 94.984 1321.21 115.739C1321.19 115.911 1321.05 115.997 1320.92 115.997C1320.78 115.997 1320.65 115.911 1320.62 115.739C1317.9 94.984 1310.83 86.0884 1303.05 78.1833C1295.27 70.2782 1286.76 63.3637 1281.17 46.5705C1281.12 46.4358 1281.01 46.3684 1280.89 46.3682V160.176H1441V46.3682C1440.88 46.3684 1440.76 46.4358 1440.72 46.5705Z" fill="#FF00A5"/>
<path d="M1280.89 0.175781H1120.78V160.176H1280.89V0.175781Z" fill="#320073"/>
<path d="M1201.35 137.078C1211.79 136.94 1221.18 132.649 1227.95 125.784C1234.73 118.919 1238.89 109.479 1238.89 99.0436C1238.89 95.5806 1238.43 92.2257 1237.56 89.0375C1236.69 85.8493 1235.42 82.8277 1233.8 80.0313L1217.44 51.7255L1201.09 23.4196C1201.03 23.3209 1200.93 23.2715 1200.83 23.2715C1200.73 23.2715 1200.63 23.3209 1200.58 23.4196L1184.22 51.7255L1167.87 80.0313C1166.25 82.8286 1164.98 85.8511 1164.11 89.0404C1163.24 92.2297 1162.78 95.5858 1162.78 99.05C1162.78 109.638 1167.1 119.215 1174.09 126.11C1181.08 133.005 1190.72 137.218 1201.35 137.078Z" fill="#0096D2"/>
<path d="M1120.78 0.175781H960.666V160.176H1120.78V0.175781Z" fill="#D70A0A"/>
<path d="M996.755 48.1221C996.734 48.0678 996.728 48.0069 996.741 47.9471C997.314 45.3385 997.667 43.0948 997.883 41.378C998.099 39.6608 998.179 38.4705 998.206 37.9686C998.21 37.8932 998.242 37.8256 998.292 37.7756C998.342 37.7256 998.41 37.6936 998.485 37.6893C998.987 37.6627 1000.18 37.5834 1001.9 37.3674C1003.61 37.1514 1005.86 36.7987 1008.47 36.2256C1008.53 36.2123 1008.59 36.2182 1008.65 36.2401C1008.7 36.262 1008.75 36.2999 1008.78 36.3506L1020.1 53.4123L1031.42 70.4737C1031.51 70.6084 1031.48 70.7557 1031.39 70.8471C1031.29 70.9385 1031.15 70.9737 1031.01 70.8846L1013.94 59.5713L996.866 48.2585C996.815 48.2245 996.777 48.1764 996.755 48.1221ZM1040.44 70.6397C1040.48 70.7807 1040.6 70.851 1040.72 70.851C1040.84 70.851 1040.96 70.7807 1041.01 70.6397L1047.22 49.9795L1053.43 29.3194C1053.45 29.2526 1053.45 29.183 1053.42 29.1221C1053.4 29.0612 1053.35 29.0084 1053.29 28.9752C1051.2 27.8409 1049.1 26.5592 1047.03 25.112C1044.95 23.6643 1042.9 22.051 1040.92 20.2526C1040.86 20.2014 1040.79 20.1756 1040.72 20.1756C1040.65 20.1756 1040.58 20.2014 1040.52 20.2526C1038.54 22.051 1036.49 23.6643 1034.42 25.112C1032.34 26.5592 1030.24 27.8409 1028.15 28.9752C1028.09 29.0084 1028.05 29.0612 1028.02 29.1221C1028 29.183 1027.99 29.2526 1028.01 29.3194L1034.22 49.9795L1040.44 70.6397ZM1050.06 70.8471C1050.15 70.9385 1050.3 70.9737 1050.43 70.8846L1067.5 59.5713L1084.58 48.2585C1084.63 48.2245 1084.67 48.1764 1084.69 48.1221C1084.71 48.0678 1084.72 48.0069 1084.7 47.9471C1084.13 45.3385 1083.78 43.0948 1083.56 41.378C1083.34 39.6608 1083.26 38.4706 1083.24 37.9686C1083.23 37.8932 1083.2 37.8256 1083.15 37.7756C1083.1 37.7256 1083.03 37.6936 1082.96 37.6893C1082.46 37.6627 1081.26 37.5835 1079.55 37.3674C1077.83 37.1514 1075.58 36.7987 1072.97 36.2256C1072.91 36.2124 1072.85 36.2182 1072.8 36.2401C1072.74 36.262 1072.69 36.2999 1072.66 36.3506L1061.34 53.4124L1050.02 70.4737C1049.93 70.6085 1049.97 70.7557 1050.06 70.8471ZM1031.39 89.5045C1031.29 89.4131 1031.15 89.378 1031.01 89.467L1013.94 100.78L996.866 112.093C996.815 112.127 996.777 112.175 996.755 112.23C996.734 112.284 996.728 112.345 996.741 112.405C997.314 115.013 997.667 117.257 997.883 118.974C998.099 120.69 998.179 121.881 998.206 122.383C998.21 122.458 998.242 122.526 998.292 122.576C998.342 122.626 998.41 122.658 998.485 122.662C998.987 122.689 1000.18 122.768 1001.9 122.984C1003.61 123.2 1005.86 123.553 1008.47 124.126C1008.53 124.139 1008.59 124.133 1008.65 124.112C1008.7 124.09 1008.75 124.052 1008.78 124.001L1020.1 106.939L1031.42 89.878C1031.51 89.7432 1031.48 89.596 1031.39 89.5045ZM1084.58 112.093L1067.5 100.78L1050.43 89.467C1050.3 89.378 1050.15 89.4131 1050.06 89.5045C1049.97 89.596 1049.93 89.7432 1050.02 89.878L1061.34 106.939L1072.66 124.001C1072.69 124.052 1072.74 124.09 1072.8 124.112C1072.85 124.133 1072.91 124.139 1072.97 124.126C1075.58 123.553 1077.83 123.2 1079.55 122.984C1081.26 122.768 1082.46 122.689 1082.96 122.662C1083.03 122.658 1083.1 122.626 1083.15 122.576C1083.2 122.526 1083.23 122.458 1083.24 122.383C1083.26 121.881 1083.34 120.69 1083.56 118.974C1083.78 117.257 1084.13 115.013 1084.7 112.405C1084.72 112.345 1084.71 112.284 1084.69 112.23C1084.67 112.175 1084.63 112.127 1084.58 112.093ZM1031.18 80.4596C1031.32 80.417 1031.39 80.2967 1031.39 80.1756C1031.39 80.0549 1031.32 79.9342 1031.18 79.892L1010.5 73.6827L989.83 67.4733C989.763 67.4534 989.693 67.4581 989.632 67.4831C989.571 67.5081 989.519 67.5538 989.485 67.6155C988.35 69.7045 987.068 71.8038 985.62 73.8764C984.171 75.9491 982.556 77.9948 980.757 79.9772C980.706 80.0338 980.68 80.1046 980.68 80.1756C980.68 80.2467 980.706 80.3178 980.757 80.3741C982.556 82.3569 984.171 84.4026 985.62 86.4753C987.068 88.5479 988.35 90.6471 989.485 92.7362C989.519 92.7979 989.571 92.8436 989.632 92.8686C989.693 92.8936 989.763 92.8983 989.83 92.878L1010.5 86.6686L1031.18 80.4596ZM1100.69 79.9772C1098.89 77.9948 1097.27 75.9491 1095.82 73.8764C1094.38 71.8038 1093.09 69.7045 1091.96 67.6155C1091.92 67.5538 1091.87 67.5081 1091.81 67.4831C1091.75 67.4581 1091.68 67.4534 1091.61 67.4733L1070.94 73.6827L1050.26 79.892C1050.12 79.9342 1050.05 80.0549 1050.05 80.1756C1050.05 80.2967 1050.12 80.417 1050.26 80.4596L1070.94 86.6686L1091.61 92.878C1091.68 92.8983 1091.75 92.8936 1091.81 92.8686C1091.87 92.8436 1091.92 92.7979 1091.96 92.7362C1093.09 90.6471 1094.38 88.5479 1095.82 86.4752C1097.27 84.4026 1098.89 82.3569 1100.69 80.3741C1100.74 80.3178 1100.76 80.2467 1100.76 80.1756C1100.76 80.1045 1100.74 80.0338 1100.69 79.9772ZM1041.01 89.7116C1040.96 89.5709 1040.84 89.5006 1040.72 89.5006C1040.6 89.5006 1040.48 89.5709 1040.44 89.7116L1034.22 110.372L1028.01 131.032C1027.99 131.099 1028 131.169 1028.02 131.23C1028.05 131.29 1028.09 131.343 1028.15 131.376C1030.24 132.511 1032.34 133.792 1034.42 135.24C1036.49 136.687 1038.54 138.301 1040.52 140.099C1040.58 140.15 1040.65 140.176 1040.72 140.176C1040.79 140.176 1040.86 140.15 1040.92 140.099C1042.9 138.301 1044.95 136.687 1047.03 135.24C1049.1 133.792 1051.2 132.511 1053.29 131.376C1053.35 131.343 1053.4 131.29 1053.42 131.23C1053.45 131.169 1053.45 131.099 1053.43 131.032L1047.22 110.372L1041.01 89.7116Z" fill="#FFD200"/>
<path d="M960.666 0.175781H800.555V160.176H960.666V0.175781Z" fill="#FF00A5"/>
<path d="M880.844 140.06C881.756 138.877 885.213 134.248 889.089 127.188C892.965 120.127 897.26 110.636 899.849 99.7299C899.868 99.6484 899.91 99.5759 899.967 99.5189C900.024 99.4619 900.096 99.4205 900.178 99.4012C911.092 96.8137 920.59 92.5215 927.655 88.6484C934.72 84.7753 939.353 81.3212 940.536 80.4098C940.613 80.3505 940.652 80.2631 940.652 80.1758C940.652 80.0884 940.613 80.0011 940.536 79.9418C939.353 79.0304 934.72 75.5763 927.655 71.7032C920.59 67.83 911.092 63.5379 900.178 60.9504C900.096 60.9311 900.024 60.8896 899.967 60.8326C899.91 60.7756 899.868 60.7031 899.849 60.6217C897.26 49.7152 892.965 40.2241 889.089 33.1639C885.213 26.1036 881.756 21.4743 880.844 20.2912C880.785 20.2143 880.698 20.1758 880.61 20.1758C880.523 20.1758 880.435 20.2143 880.376 20.2912C879.464 21.4743 876.008 26.1036 872.132 33.1639C868.256 40.2241 863.961 49.7152 861.372 60.6217C861.352 60.7031 861.311 60.7756 861.254 60.8326C861.197 60.8896 861.124 60.9311 861.043 60.9504C850.128 63.5379 840.631 67.83 833.566 71.7032C826.501 75.5763 821.868 79.0304 820.684 79.9418C820.607 80.0011 820.569 80.0884 820.569 80.1758C820.569 80.2631 820.607 80.3505 820.684 80.4098C821.868 81.3212 826.501 84.7753 833.566 88.6484C840.631 92.5215 850.128 96.8137 861.043 99.4012C861.124 99.4205 861.197 99.4619 861.254 99.5189C861.311 99.5759 861.352 99.6484 861.372 99.7299C863.961 110.636 868.256 120.127 872.132 127.188C876.008 134.248 879.464 138.877 880.376 140.06C880.435 140.137 880.523 140.176 880.61 140.176C880.698 140.176 880.785 140.137 880.844 140.06Z" fill="#320073"/>
<path d="M800.556 0.175781H640.445V160.176H800.556V0.175781Z" fill="#D70A0A"/>
<path d="M799.885 80.4401L750.853 105.16L701.821 129.88C701.738 129.922 701.646 129.921 701.569 129.887C701.492 129.853 701.429 129.786 701.403 129.697C697.754 117.061 689.339 106.934 678.514 98.8746C667.688 90.8152 654.452 84.8231 641.159 80.4561C641.023 80.4114 640.955 80.2935 640.955 80.1756C640.955 80.0577 641.023 79.9398 641.159 79.8951C654.452 75.5281 667.688 69.536 678.514 61.4766C689.339 53.4172 697.754 43.2905 701.403 30.6542C701.429 30.5651 701.492 30.4984 701.569 30.4645C701.646 30.4306 701.738 30.4294 701.821 30.4713L750.853 55.1912L799.885 79.9111C799.993 79.9659 800.048 80.0707 800.048 80.1756C800.048 80.2805 799.993 80.3854 799.885 80.4401Z" fill="#FFD200"/>
<path d="M640.445 0.175781H480.334V160.176H640.445V0.175781Z" fill="#FF00A5"/>
<path d="M577.295 132.524C577.372 132.622 577.376 132.742 577.329 132.837C577.283 132.933 577.186 133.004 577.062 133.004H543.717C543.593 133.004 543.497 132.933 543.45 132.837C543.404 132.742 543.408 132.622 543.485 132.524L551.821 122.005L560.157 111.485C560.217 111.41 560.304 111.372 560.39 111.372C560.476 111.372 560.563 111.41 560.623 111.485L568.959 122.005L577.295 132.524ZM553.066 107.536C553.033 107.428 552.941 107.337 552.806 107.327L535.022 105.918L517.239 104.509C516.375 104.44 515.497 104.45 514.615 104.544C513.733 104.638 512.848 104.815 511.968 105.082C508.163 106.235 505.193 108.832 503.477 112.091C501.761 115.35 501.299 119.27 502.509 123.068C503.647 126.637 506.094 129.471 509.166 131.183C512.239 132.896 515.936 133.488 519.571 132.576C520.588 132.321 521.551 131.964 522.451 131.519C523.351 131.075 524.188 130.544 524.955 129.938L538.961 118.896L552.966 107.854C553.072 107.771 553.099 107.645 553.066 107.536ZM506.71 83.935C507.579 84.6514 508.495 85.2701 509.446 85.7928C510.398 86.3151 511.384 86.7412 512.393 87.0725L533.27 93.9319L554.147 100.791C554.275 100.833 554.396 100.786 554.468 100.699C554.54 100.611 554.564 100.484 554.499 100.366L543.846 81.1576L533.193 61.9491C532.678 61.019 532.073 60.1287 531.379 59.2909C530.686 58.4534 529.904 57.6682 529.034 56.9495C525.274 53.8405 520.6 52.5651 516.1 53.0209C511.599 53.4768 507.272 55.6639 504.205 59.4795C501.22 63.1944 500.008 67.7909 500.462 72.2178C500.915 76.6444 503.034 80.9006 506.71 83.935ZM608.812 105.082C607.932 104.815 607.047 104.638 606.165 104.544C605.283 104.45 604.405 104.44 603.541 104.509L585.758 105.918L567.974 107.327C567.84 107.337 567.747 107.428 567.713 107.536C567.681 107.645 567.708 107.771 567.814 107.855L581.819 118.896L595.825 129.938C596.592 130.544 597.429 131.075 598.329 131.519C599.229 131.964 600.191 132.321 601.209 132.576C604.844 133.488 608.541 132.896 611.613 131.183C614.685 129.471 617.133 126.637 618.271 123.068C619.481 119.27 619.019 115.35 617.303 112.091C615.587 108.832 612.617 106.235 608.812 105.082ZM616.575 59.4795C613.508 55.6639 609.18 53.4768 604.68 53.0209C600.18 52.5651 595.506 53.8404 591.746 56.9494C590.876 57.6682 590.094 58.4533 589.401 59.2908C588.707 60.1287 588.102 61.019 587.587 61.949L576.934 81.1576L566.281 100.366C566.216 100.484 566.24 100.611 566.312 100.699C566.384 100.786 566.505 100.833 566.633 100.791L587.51 93.9318L608.387 87.0725C609.395 86.7412 610.382 86.3151 611.333 85.7928C612.285 85.2701 613.202 84.6514 614.069 83.935C617.745 80.9006 619.864 76.6443 620.318 72.2178C620.772 67.7908 619.56 63.1944 616.575 59.4795ZM543.346 49.0494L551.73 70.4248L560.114 91.8006C560.163 91.926 560.277 91.9885 560.39 91.9885C560.503 91.9885 560.617 91.926 560.666 91.8006L569.05 70.4248L577.433 49.0494C577.839 48.0154 578.153 46.9358 578.366 45.8197C578.579 44.7041 578.691 43.5526 578.691 42.3748C578.691 37.2795 576.605 32.6709 573.241 29.3549C569.877 26.0385 565.234 24.0147 560.119 24.0889C555.138 24.1608 550.629 26.2471 547.366 29.56C544.102 32.8729 542.085 37.4119 542.089 42.3897C542.09 43.5647 542.202 44.7135 542.415 45.8268C542.628 46.9401 542.941 48.0178 543.346 49.0494Z" fill="#320073"/>
<path d="M480.334 0.175781H320.223V160.176H480.334V0.175781Z" fill="#320073"/>
<path d="M400.513 113.904C401.317 114.956 404.266 118.532 410.521 123.341C416.776 128.151 426.338 134.193 440.37 140.178C440.44 140.208 440.517 140.209 440.585 140.185C440.653 140.161 440.713 140.113 440.749 140.045L446.64 128.983L452.53 117.921C452.571 117.845 452.575 117.76 452.549 117.685C452.523 117.61 452.468 117.546 452.389 117.511C451.062 116.931 445.421 114.417 439.518 111.111C433.615 107.805 427.452 103.708 425.083 99.9613C422.543 95.9453 422.685 93.1792 423.463 88.9445C424.24 84.7099 425.653 79.0067 425.653 69.1169C425.653 58.4612 419.979 46.9153 413.997 37.7037C408.015 28.4921 401.726 21.6148 400.494 20.2962C400.435 20.2335 400.357 20.2021 400.278 20.2021C400.199 20.2021 400.12 20.2335 400.062 20.2962C398.83 21.6148 392.54 28.4921 386.558 37.7037C380.577 46.9153 374.903 58.4612 374.903 69.1169C374.903 79.0067 376.315 84.7099 377.093 88.9445C377.87 93.1792 378.013 95.9453 375.473 99.9613C373.103 103.708 366.94 107.805 361.038 111.111C355.135 114.417 349.493 116.931 348.167 117.511C348.088 117.546 348.032 117.61 348.006 117.685C347.981 117.76 347.985 117.845 348.025 117.921L353.916 128.983L359.807 140.045C359.843 140.113 359.902 140.161 359.97 140.185C360.038 140.209 360.115 140.208 360.186 140.178C374.217 134.193 383.779 128.151 390.034 123.341C396.29 118.532 399.238 114.956 400.043 113.904C400.102 113.826 400.19 113.787 400.278 113.787C400.366 113.787 400.453 113.826 400.513 113.904Z" fill="#FFD200"/>
<path d="M320.222 0.175781H160.111V160.176H320.222V0.175781Z" fill="#0096D2"/>
<path d="M299.929 60.4815L285.06 59.5703L270.191 58.6592C270.098 58.6535 270.019 58.6061 269.97 58.5376C269.92 58.4691 269.899 58.3795 269.922 58.2893L273.65 43.8765L277.378 29.4637C277.412 29.3335 277.357 29.2163 277.265 29.1498C277.173 29.0833 277.045 29.0673 276.932 29.1396L264.366 37.1362L251.801 45.1327C251.723 45.1828 251.631 45.1908 251.55 45.1646C251.47 45.1384 251.4 45.0781 251.366 44.9915L245.904 31.1413L240.442 17.2911C240.393 17.166 240.28 17.1034 240.166 17.1034C240.053 17.1034 239.94 17.166 239.891 17.2911L234.429 31.1413L228.967 44.9915C228.933 45.0781 228.863 45.1385 228.783 45.1646C228.702 45.1908 228.611 45.1828 228.532 45.1327L215.967 37.1362L203.402 29.1396C203.288 29.0674 203.16 29.0833 203.068 29.1498C202.977 29.2163 202.922 29.3335 202.955 29.4637L206.683 43.8765L210.411 58.2893C210.434 58.3795 210.413 58.4691 210.364 58.5376C210.314 58.6061 210.235 58.6535 210.142 58.6592L195.273 59.5703L180.404 60.4815C180.269 60.4897 180.175 60.578 180.14 60.6857C180.105 60.7933 180.129 60.9203 180.233 61.0058L191.727 70.4765L203.22 79.9472C203.292 80.0065 203.328 80.0911 203.328 80.1758C203.328 80.2605 203.292 80.3451 203.22 80.4044L191.727 89.8751L180.233 99.3458C180.129 99.4313 180.105 99.5583 180.14 99.6659C180.175 99.7736 180.269 99.8619 180.404 99.8701L195.273 100.781L210.142 101.692C210.235 101.698 210.314 101.745 210.364 101.814C210.413 101.882 210.434 101.972 210.411 102.062L206.683 116.475L202.955 130.888C202.922 131.018 202.977 131.135 203.068 131.202C203.16 131.268 203.288 131.284 203.402 131.212L215.967 123.215L228.532 115.219C228.611 115.169 228.702 115.161 228.783 115.187C228.863 115.213 228.933 115.273 228.967 115.36L234.429 129.21L239.891 143.061C239.94 143.186 240.053 143.248 240.166 143.248C240.28 143.248 240.393 143.186 240.442 143.061L245.904 129.21L251.366 115.36C251.4 115.273 251.47 115.213 251.55 115.187C251.631 115.161 251.723 115.169 251.801 115.219L264.366 123.215L276.932 131.212C277.045 131.284 277.173 131.268 277.265 131.202C277.357 131.135 277.412 131.018 277.378 130.888L273.65 116.475L269.922 102.062C269.899 101.972 269.92 101.883 269.97 101.814C270.019 101.746 270.098 101.698 270.191 101.692L285.06 100.781L299.929 99.8701C300.064 99.8619 300.158 99.7736 300.193 99.6659C300.228 99.5583 300.204 99.4313 300.1 99.3458L288.606 89.8751L277.113 80.4044C277.041 80.3452 277.005 80.2605 277.005 80.1758C277.005 80.0911 277.041 80.0065 277.113 79.9472L288.606 70.4765L300.1 61.0058C300.204 60.9203 300.228 60.7933 300.193 60.6857C300.158 60.578 300.064 60.4897 299.929 60.4815ZM240.167 102.843C237.035 102.843 234.051 102.208 231.337 101.061C228.624 99.9144 226.18 98.2547 224.127 96.2037C222.075 94.1528 220.414 91.7106 219.266 88.9988C218.119 86.287 217.484 83.3054 217.484 80.1758C217.484 77.0461 218.119 74.0646 219.266 71.3528C220.414 68.641 222.075 66.1988 224.127 64.1479C226.18 62.0969 228.624 60.4372 231.337 59.2902C234.051 58.1432 237.035 57.5089 240.167 57.5089C243.298 57.5089 246.282 58.1432 248.996 59.2902C251.709 60.4372 254.153 62.0969 256.206 64.1479C258.258 66.1988 259.919 68.641 261.067 71.3528C262.215 74.0646 262.849 77.0461 262.849 80.1758C262.849 83.3054 262.215 86.287 261.067 88.9988C259.919 91.7106 258.258 94.1528 256.206 96.2037C254.153 98.2547 251.709 99.9144 248.996 101.061C246.282 102.208 243.298 102.843 240.167 102.843Z" fill="#320073"/>
<path d="M160.111 0.175781H0V160.176H160.111V0.175781Z" fill="#320073"/>
<path d="M64.1416 73.5886C60.0688 69.5187 57.5498 63.8961 57.5498 57.6857C57.5498 51.4752 60.0688 45.8526 64.1416 41.7827C68.2143 37.7128 73.8407 35.1955 80.0556 35.1955C86.2704 35.1955 91.8968 37.7128 95.9695 41.7827C100.042 45.8526 102.561 51.4752 102.561 57.6857C102.561 63.8961 100.042 69.5187 95.9695 73.5886C91.8968 77.6585 86.2703 80.1758 80.0556 80.1758C73.8408 80.1758 68.2143 77.6585 64.1416 73.5886ZM159.901 60.3447L120.083 100.217L80.2654 140.089C80.2075 140.147 80.1315 140.176 80.0556 140.176C79.9796 140.176 79.9036 140.147 79.8457 140.089L40.0278 100.217L0.209874 60.3447C0.151953 60.2867 0.0759807 60.2577 0 60.2577V160.176H160.111V60.2577C160.035 60.2577 159.959 60.2867 159.901 60.3447Z" fill="#FF00A5"/>
</svg>
