<svg id="master-artboard" version="1.1" xmlns="http://www.w3.org/2000/svg" x="0" y="0" style="enable-background:new 0 0 1400 980" width="1099.622" height="248.387"><path id="ee-background" style="fill:#fff;fill-opacity:0;pointer-events:none" d="M0 0h1099.622v248.387H0z"/><defs><style id="ee-google-fonts">@import url(https://fonts.googleapis.com/css?family=Fjalla+One:400|Roboto:100,100italic,300,300italic,400,400italic,500,500italic,700,700italic,900,900italic);</style></defs><path d="M129.072 28.088c1.755 0 3.029-1.29 3.029-3.07 0-1.807-1.245-3.07-3.029-3.07-1.759 0-3.036 1.291-3.036 3.07 0 1.78 1.277 3.07 3.036 3.07Zm0-5.053c1.064 0 1.836.834 1.836 1.983 0 1.131-.789 1.984-1.836 1.984-1.073 0-1.852-.834-1.852-1.984 0-1.149.779-1.983 1.852-1.983Zm4.997 2.902h.717c.621.57 1.056 1.183 1.452 2.04l.021.045h1.278l-.044-.106a6.653 6.653 0 0 0-1.477-2.253c.787-.275 1.219-.89 1.219-1.741 0-1.23-.739-1.907-2.08-1.907h-2.238v6.007h1.152v-2.085Zm0-2.877h.937c.663 0 1.043.332 1.043.912 0 .58-.405.912-1.109.912h-.871V23.06Zm14.181 1.967c0-1.802-1.253-3.012-3.119-3.012h-1.94v6.007h1.965c1.879 0 3.094-1.175 3.094-2.995Zm-3.907 1.95V23.06h.804c1.13 0 1.919.809 1.919 1.967 0 1.148-.81 1.95-1.968 1.95h-.755Zm-1.891 1.045h-4.111v-6.007h1.151v4.963h2.96v1.044Zm-75.473 0h-1.144v-6.007h1.074l.023.032 2.852 4.053v-4.085h1.144v6.007H69.83l-.023-.032-2.828-3.989v4.021Zm-12.376 0h-1.152v-6.007h1.12l.023.04 1.87 3.395 1.891-3.435h1.12v6.007h-1.152V24.29l-1.494 2.603h-.74l-.023-.039-1.463-2.549v3.717Zm18.163-3.767h-.9l.275-2.24h1.157l-.532 2.24Zm4.23 2.124c0-.475-.34-.588-1.082-.835l-.168-.056c-.848-.286-1.809-.61-1.809-1.789 0-1.063.79-1.75 2.015-1.75.857 0 1.564.225 2.102.669l.054.045-.64.945-.065-.055c-.4-.335-.99-.56-1.468-.56-.51 0-.813.23-.813.616 0 .38.309.505 1.07.776 1.116.394 1.997.705 1.997 1.87 0 1.217-.738 1.833-2.196 1.833-.808 0-1.579-.215-2.114-.59l-.055-.04.543-1.049.073.057c.488.377 1.003.56 1.577.56.604 0 .978-.247.978-.647ZM46.28 25.213c.37-1.906 1.626-3.242 3.638-3.242.427 0 .87.053 1.241.16l-.329 1.051a3.928 3.928 0 0 0-1.175-.178c-1.122 0-1.838.846-2.065 2.013-.254 1.31.147 2.04 1.358 2.04.365 0 .875-.107 1.214-.25l-.067 1.033c-.476.16-1.04.268-1.6.268-2.101 0-2.506-1.399-2.215-2.895Zm46.997 2.81h-1.152v-6.008h1.152v6.007Zm.816-2.988c0-1.846 1.244-3.087 3.095-3.087.887 0 1.688.334 2.257.94l.049.052-.765.85-.058-.064a2.027 2.027 0 0 0-1.557-.683c-1.093 0-1.828.8-1.828 1.992 0 1.185.75 1.95 1.91 1.95.633 0 1.106-.167 1.583-.559l.068-.056.591.944-.046.044c-.485.458-1.333.73-2.27.73-1.811 0-3.029-1.227-3.029-3.053Zm18.218-1.975h-1.656v-1.045h4.49v1.045h-1.681v4.962h-1.153V23.06Zm-72.442 4.967h-1.157l1.168-6.012h1.157l-1.168 6.012Zm50.638 4.042.005.464.86 2.305-5.358 12.256h4.135l.992-2.52h6.932l.932 2.52h4.429l-6.006-15.025h-6.921Zm1.899 9.34 2.337-5.926 2.15 5.89-4.487.037Zm22.744 2.485 6.403-.608v3.808h-12.486v-2.542l3.925-2.944c2.83-2.116 3.771-3.041 3.771-4.348 0-1.578-1.621-1.909-2.98-1.909-1.673 0-3.085.388-4.875 1.338l-.138.074v-3.988l.057-.024c1.414-.6 3.209-.941 5.054-.96l.34-.003c4.444 0 6.697 1.648 6.697 4.897 0 2.416-1.395 4.392-4.525 6.407l-1.243.802Zm7.855-15.928-1.164-4.24-1.226 4.296h-.964l-.018-.053-1.903-5.954h1.252l.017.055 1.152 4.018 1.105-4.073h1.174l.015.057 1.066 4.016 1.193-4.073h1.244l-.033.1-1.922 5.907h-.972l-.016-.056Zm-12.975.056h-4.276v-6.007h4.161v1.045h-3.009v1.46h2.753v1.046h-2.753v1.412h3.124v1.044Zm-4.95-6.007-2.212 2.66c.837.831 1.699 2.153 2.111 3.243l.039.104h-1.259l-.02-.047c-.346-.824-1.013-1.84-1.64-2.503l-.709.836v1.714h-1.152v-6.007h1.152v2.747l2.21-2.747h1.48Zm-17.206 3.922h.717c.621.57 1.056 1.183 1.452 2.04l.02.045h1.28l-.045-.106a6.647 6.647 0 0 0-1.477-2.253c.787-.275 1.22-.89 1.22-1.741 0-1.23-.74-1.907-2.081-1.907h-2.237v6.007h1.151v-2.085Zm0-2.877h.937c.663 0 1.044.332 1.044.912 0 .58-.405.912-1.11.912h-.87V23.06Zm68.064 4.298c-.485.458-1.333.73-2.27.73-1.811 0-3.029-1.227-3.029-3.053 0-1.846 1.244-3.087 3.095-3.087.887 0 1.688.334 2.257.94l.049.052-.765.85-.058-.064a2.025 2.025 0 0 0-1.557-.683c-1.093 0-1.828.8-1.828 1.992 0 1.185.75 1.95 1.91 1.95.633 0 1.106-.167 1.583-.559l.068-.056.591.944-.046.044Zm11.003 15.06c0 3.064-2.623 4.894-7.017 4.894-2.118 0-4.067-.485-5.093-.9l-.059-.023V42.76l.137.07c1.118.568 2.698 1.22 5.015 1.22 2.571 0 2.901-.904 2.901-1.692 0-1.102-.941-1.334-1.731-1.334 0 0-.142-.005-.211-.005-.103 0-.238.005-.392.024l-3.597.348v-3.253h3.784c1.089 0 1.849-.581 1.849-1.413 0-1.043-.896-1.572-2.663-1.572-2.247 0-4.411.882-5.237 1.26l-.133.062v-3.723l.061-.023c1.244-.47 3.461-.978 5.389-.978 4.421 0 6.758 1.343 6.758 3.883 0 1.567-.792 2.633-2.357 3.173 1.7.58 2.596 1.823 2.596 3.61ZM130.642 31.75c-4.64 0-8.008 3.318-8.008 7.89 0 4.6 3.21 7.69 7.988 7.69 4.731 0 7.91-3.17 7.91-7.889 0-4.6-3.171-7.69-7.89-7.69Zm.08 12.378c-2.365 0-3.893-1.739-3.893-4.429 0-2.878 1.416-4.666 3.694-4.666 2.293 0 3.833 1.795 3.833 4.468 0 2.854-1.392 4.627-3.634 4.627Zm15.565-.235 6.403-.608v3.808h-12.486v-2.542l3.925-2.944c2.829-2.116 3.771-3.041 3.771-4.348 0-1.578-1.621-1.909-2.981-1.909-1.672 0-3.085.388-4.874 1.338l-.139.074v-3.988l.058-.024c1.414-.6 3.209-.941 5.054-.96l.339-.003c4.445 0 6.698 1.648 6.698 4.897 0 2.416-1.396 4.392-4.526 6.407l-1.242.802ZM64.878 28.022h-4.276v-6.007h4.161v1.045h-3.009v1.46h2.753v1.046h-2.753v1.412h3.125v1.044ZM38.713 32.07h4.14l-.18 8.209v6.816h-3.719l-.04-6.818-.2-8.207Zm43.06-7.034c0 1.185.749 1.95 1.909 1.95.633 0 1.106-.167 1.583-.559l.068-.056.591.944-.046.044c-.485.458-1.333.73-2.27.73-1.811 0-3.029-1.227-3.029-3.053 0-1.846 1.244-3.087 3.095-3.087.887 0 1.688.334 2.257.94l.049.052-.765.85-.058-.064a2.027 2.027 0 0 0-1.557-.683c-1.093 0-1.828.8-1.828 1.992ZM45.203 27.84a5.13 5.13 0 0 1-1.6.268c-2.101 0-2.506-1.399-2.215-2.895.37-1.906 1.626-3.242 3.638-3.242.427 0 .87.053 1.241.16l-.328 1.051a3.93 3.93 0 0 0-1.176-.178c-1.122 0-1.838.846-2.065 2.013-.254 1.31.147 2.04 1.358 2.04.364 0 .875-.107 1.214-.25l-.067 1.033Zm118.612-1.903h.928c1.396 0 2.197-.71 2.197-1.949 0-1.254-.759-1.973-2.081-1.973h-2.196v6.007h1.152v-2.085Zm0-2.877h.904c.667 0 1.035.324 1.035.912 0 .588-.394.912-1.11.912h-.829V23.06ZM56.394 32.069h4.124l-.42 10.65v4.375h-2.819l-6.97-9.02-1.112 9.02h-4.106l2.395-11.516-2.334-3.046v-.463h5.279l6.331 8.461-.368-8.461Zm100.39-6.449v-3.605h1.143v3.531c0 .92.459 1.448 1.259 1.448.81 0 1.274-.528 1.274-1.448v-3.531h1.144v3.605c0 1.569-.881 2.468-2.418 2.468-1.527 0-2.402-.9-2.402-2.468ZM80.308 32.07h4.14l-.18 8.209v6.816h-3.719l-.04-6.818-.2-8.207Zm-11.29 0H63.01l.201 8.088.04 6.937h5.846c5.822 0 9.298-2.927 9.298-7.83 0-4.573-3.418-7.195-9.377-7.195Zm.373 12.02-2.342.095.02-9.011h2.068c3.088 0 5.083 1.699 5.083 4.329 0 2.753-1.805 4.467-4.83 4.587Z" fill="#320073" transform="matrix(8.38323 0 0 8.38323 -309.3 -159.48)"/></svg>