<svg width="276" height="25" viewBox="0 0 276 25" fill="none" xmlns="http://www.w3.org/2000/svg">
<path d="M263.715 16.7764C264.495 17.5649 264.977 18.6543 264.977 19.8576C264.977 21.0609 264.495 22.1502 263.715 22.9388C262.935 23.7273 261.857 24.2151 260.667 24.2151C259.476 24.2151 258.399 23.7273 257.619 22.9388C256.839 22.1502 256.356 21.0609 256.356 19.8576C256.356 18.6543 256.839 17.5649 257.619 16.7764C258.399 15.9878 259.476 15.5001 260.667 15.5001C261.857 15.5001 262.935 15.9878 263.715 16.7764ZM230 15.5001C228.81 15.5001 227.732 15.9878 226.952 16.7764C226.172 17.5649 225.689 18.6543 225.689 19.8576C225.689 21.0609 226.172 22.1502 226.952 22.9388C227.732 23.7273 228.81 24.2151 230 24.2151C231.19 24.2151 232.268 23.7273 233.048 22.9388C233.828 22.1502 234.311 21.0609 234.311 19.8576C234.311 18.6543 233.828 17.5649 233.048 16.7764C232.268 15.9878 231.19 15.5001 230 15.5001ZM199.333 15.5001C198.143 15.5001 197.065 15.9878 196.285 16.7764C195.505 17.5649 195.023 18.6543 195.023 19.8576C195.023 21.0609 195.505 22.1502 196.285 22.9388C197.065 23.7273 198.143 24.2151 199.333 24.2151C200.524 24.2151 201.601 23.7273 202.381 22.9388C203.161 22.1502 203.644 21.0609 203.644 19.8576C203.644 18.6543 203.161 17.5649 202.381 16.7764C201.601 15.9878 200.524 15.5001 199.333 15.5001ZM168.667 15.5001C167.476 15.5001 166.399 15.9878 165.619 16.7764C164.839 17.5649 164.356 18.6543 164.356 19.8576C164.356 21.0609 164.839 22.1502 165.619 22.9388C166.399 23.7273 167.476 24.2151 168.667 24.2151C169.857 24.2151 170.935 23.7273 171.715 22.9388C172.495 22.1502 172.977 21.0609 172.977 19.8576C172.977 18.6543 172.495 17.5649 171.715 16.7764C170.935 15.9878 169.857 15.5001 168.667 15.5001ZM138 15.5001C136.81 15.5001 135.732 15.9878 134.952 16.7764C134.172 17.5649 133.689 18.6543 133.689 19.8576C133.689 21.0609 134.172 22.1502 134.952 22.9388C135.732 23.7273 136.81 24.2151 138 24.2151C139.19 24.2151 140.268 23.7273 141.048 22.9388C141.828 22.1502 142.311 21.0609 142.311 19.8576C142.311 18.6543 141.828 17.5649 141.048 16.7764C140.268 15.9878 139.19 15.5001 138 15.5001ZM107.333 15.5001C106.143 15.5001 105.065 15.9878 104.285 16.7764C103.505 17.5649 103.023 18.6543 103.023 19.8576C103.023 21.0609 103.505 22.1502 104.285 22.9388C105.065 23.7273 106.143 24.2151 107.333 24.2151C108.524 24.2151 109.601 23.7273 110.381 22.9388C111.161 22.1502 111.644 21.0609 111.644 19.8576C111.644 18.6543 111.161 17.5649 110.381 16.7764C109.601 15.9878 108.524 15.5001 107.333 15.5001ZM76.6667 15.5001C75.4763 15.5001 74.3987 15.9878 73.6186 16.7764C72.8386 17.5649 72.356 18.6543 72.356 19.8576C72.356 21.0609 72.8386 22.1502 73.6186 22.9388C74.3987 23.7273 75.4763 24.2151 76.6667 24.2151C77.857 24.2151 78.9346 23.7273 79.7148 22.9388C80.4948 22.1502 80.9773 21.0609 80.9773 19.8576C80.9773 18.6543 80.4948 17.5649 79.7148 16.7764C78.9346 15.9878 77.857 15.5001 76.6667 15.5001ZM46 15.5001C44.8096 15.5001 43.732 15.9878 42.9519 16.7764C42.1719 17.5649 41.6894 18.6543 41.6894 19.8576C41.6894 21.0609 42.1719 22.1502 42.9519 22.9388C43.732 23.7273 44.8096 24.2151 46 24.2151C47.1904 24.2151 48.2679 23.7273 49.0481 22.9388C49.8281 22.1502 50.3106 21.0609 50.3106 19.8576C50.3106 18.6543 49.8281 17.5649 49.0481 16.7764C48.2679 15.9878 47.1904 15.5001 46 15.5001ZM15.3333 15.5001C14.143 15.5001 13.0654 15.9878 12.2852 16.7764C11.5052 17.5649 11.0227 18.6543 11.0227 19.8576C11.0227 21.0609 11.5052 22.1502 12.2852 22.9388C13.0654 23.7273 14.143 24.2151 15.3333 24.2151C16.5237 24.2151 17.6013 23.7273 18.3814 22.9388C19.1614 22.1502 19.644 21.0609 19.644 19.8576C19.644 18.6543 19.1614 17.5649 18.3814 16.7764C17.6013 15.9878 16.5237 15.5001 15.3333 15.5001ZM0.0401912 19.3424L7.66666 11.6171L15.2931 3.89194C15.3042 3.88067 15.3188 3.87507 15.3333 3.87507C15.3478 3.87507 15.3625 3.88067 15.3735 3.89194L23 11.6171L30.6264 19.3424C30.6375 19.3536 30.6521 19.3592 30.6667 19.3592C30.6812 19.3592 30.6958 19.3536 30.7069 19.3424L38.3333 11.6171L45.9598 3.89194C45.9709 3.88067 45.9855 3.87506 46 3.87506C46.0145 3.87506 46.0291 3.88066 46.0402 3.89194L53.6667 11.6171L61.2931 19.3424C61.3042 19.3536 61.3188 19.3592 61.3333 19.3592C61.3479 19.3592 61.3625 19.3536 61.3735 19.3424L69 11.6171L76.6265 3.89194C76.6375 3.88066 76.6521 3.87506 76.6667 3.87506C76.6812 3.87506 76.6958 3.88066 76.7069 3.89194L84.3333 11.6171L91.9598 19.3424C91.9709 19.3536 91.9855 19.3592 92 19.3592C92.0145 19.3592 92.0291 19.3536 92.0402 19.3424L99.6667 11.6171L107.293 3.89194C107.304 3.88066 107.319 3.87506 107.333 3.87506C107.348 3.87506 107.362 3.88066 107.374 3.89194L115 11.6171L122.626 19.3424C122.638 19.3536 122.652 19.3592 122.667 19.3592C122.681 19.3592 122.696 19.3536 122.707 19.3424L130.333 11.6171L137.96 3.89193C137.971 3.88066 137.985 3.87506 138 3.87506C138.015 3.87506 138.029 3.88066 138.04 3.89193L145.667 11.6171L153.293 19.3424C153.304 19.3536 153.319 19.3592 153.333 19.3592C153.348 19.3592 153.362 19.3536 153.374 19.3424L161 11.6171L168.626 3.89193C168.638 3.88066 168.652 3.87505 168.667 3.87505C168.681 3.87505 168.696 3.88065 168.707 3.89193L176.333 11.6171L183.96 19.3424C183.971 19.3536 183.985 19.3592 184 19.3592C184.015 19.3592 184.029 19.3536 184.04 19.3424L191.667 11.6171L199.293 3.89193C199.304 3.88065 199.319 3.87505 199.333 3.87505C199.348 3.87505 199.362 3.88065 199.374 3.89193L207 11.6171L214.626 19.3424C214.638 19.3536 214.652 19.3592 214.667 19.3592C214.681 19.3592 214.696 19.3536 214.707 19.3424L222.333 11.6171L229.96 3.89193C229.971 3.88065 229.985 3.87505 230 3.87505C230.015 3.87505 230.029 3.88065 230.04 3.89193L237.667 11.6171L245.293 19.3424C245.304 19.3536 245.319 19.3592 245.333 19.3592C245.348 19.3592 245.362 19.3536 245.374 19.3424L253 11.6171L260.626 3.89192C260.638 3.88065 260.652 3.87505 260.667 3.87505C260.681 3.87505 260.696 3.88065 260.707 3.89192L268.333 11.6171L275.96 19.3424C275.971 19.3536 275.985 19.3592 276 19.3592L276 0.000120163L-2.11694e-06 0.000144292L-4.24513e-07 19.3593C0.0145259 19.3593 0.0291133 19.3537 0.0401912 19.3424Z" fill="#FF00A5"/>
</svg>
