<?xml version="1.0" encoding="utf-8"?>
<svg id="master-artboard" viewBox="0 0 983.55029296875 1046.4547119140625" version="1.1" xmlns="http://www.w3.org/2000/svg" x="0px" y="0px" style="enable-background:new 0 0 1400 980;" width="983.55029296875px" height="1046.4547119140625px"><rect id="ee-background" x="0" y="0" width="983.55029296875" height="1046.4547119140625" style="fill: white; fill-opacity: 0; pointer-events: none;"/><g transform="matrix(3.828125, 0, 0, 3.828125, 1.7752344608306885, 110.75789642333984)"><g style="stroke: none; stroke-width: 0; stroke-dasharray: none; stroke-linecap: butt; stroke-linejoin: miter; stroke-miterlimit: 10; fill: none; fill-rule: nonzero; opacity: 1;" transform="translate(1.4065934065934016 5.755146262188532) scale(2.81 2.81)">
	<path d="M 43.01 5.842 C 28.001 6.803 15.805 18.984 14.826 33.991 c -0.641 9.836 3.424 18.746 10.163 24.699 c 0.5 0.441 1.153 0.671 1.819 0.671 h 0 c 1.339 0 2.51 -0.953 2.724 -2.274 c 1.205 -7.46 7.666 -13.159 15.467 -13.159 c -4.789 0 -8.672 -3.883 -8.672 -8.672 v -3.93 c 0 -4.619 3.486 -8.652 8.095 -8.951 c 5.051 -0.327 9.25 3.673 9.25 8.654 v 4.227 c 0 4.789 -3.882 8.672 -8.672 8.672 c 7.801 0 14.262 5.699 15.467 13.159 c 0.213 1.322 1.385 2.274 2.724 2.274 h 0.003 c 0.665 0 1.316 -0.229 1.814 -0.669 c 6.274 -5.541 10.231 -13.645 10.231 -22.674 C 75.24 18.658 60.612 4.715 43.01 5.842 z" style="stroke: none; stroke-width: 1; stroke-dasharray: none; stroke-linecap: butt; stroke-linejoin: miter; stroke-miterlimit: 10; fill: rgb(77,77,79); fill-rule: nonzero; opacity: 1;" transform=" matrix(1 0 0 1 0 0) " stroke-linecap="round"/>
	<path d="M 79.07 62.361 l -67.777 0 c -6.018 0 -11.181 4.708 -11.291 10.726 c -0.112 6.13 4.824 11.135 10.929 11.135 l 67.777 0 c 6.018 0 11.181 -4.708 11.291 -10.726 C 90.11 67.365 85.174 62.361 79.07 62.361 z M 18.204 75.791 c -1.381 0 -2.5 -1.119 -2.5 -2.5 c 0 -1.381 1.119 -2.5 2.5 -2.5 s 2.5 1.119 2.5 2.5 C 20.704 74.672 19.585 75.791 18.204 75.791 z M 31.602 75.791 c -1.381 0 -2.5 -1.119 -2.5 -2.5 c 0 -1.381 1.119 -2.5 2.5 -2.5 c 1.381 0 2.5 1.119 2.5 2.5 C 34.102 74.672 32.983 75.791 31.602 75.791 z M 45 75.791 c -1.381 0 -2.5 -1.119 -2.5 -2.5 c 0 -1.381 1.119 -2.5 2.5 -2.5 s 2.5 1.119 2.5 2.5 C 47.5 74.672 46.381 75.791 45 75.791 z M 58.398 75.791 c -1.381 0 -2.5 -1.119 -2.5 -2.5 c 0 -1.381 1.119 -2.5 2.5 -2.5 c 1.381 0 2.5 1.119 2.5 2.5 C 60.898 74.672 59.779 75.791 58.398 75.791 z M 71.796 75.791 c -1.381 0 -2.5 -1.119 -2.5 -2.5 c 0 -1.381 1.119 -2.5 2.5 -2.5 s 2.5 1.119 2.5 2.5 C 74.296 74.672 73.177 75.791 71.796 75.791 z" style="stroke: none; stroke-width: 1; stroke-dasharray: none; stroke-linecap: butt; stroke-linejoin: miter; stroke-miterlimit: 10; fill: rgb(77,77,79); fill-rule: nonzero; opacity: 1;" transform=" matrix(1 0 0 1 0 0) " stroke-linecap="round"/>
</g></g></svg>