<?xml version="1.0" encoding="iso-8859-1"?>
<!-- Uploaded to: SVG Repo, www.svgrepo.com, Generator: SVG Repo Mixer Tools -->
<svg height="800px" width="800px" version="1.1" id="Layer_1" xmlns="http://www.w3.org/2000/svg" xmlns:xlink="http://www.w3.org/1999/xlink" 
	 viewBox="0 0 512 512" xml:space="preserve">
<path style="fill:#959CB3;" d="M256,105.931c-29.207,0-52.966-23.758-52.966-52.966S226.793,0,256,0s52.966,23.758,52.966,52.966
	S285.207,105.931,256,105.931z M256,17.655c-19.474,0-35.31,15.837-35.31,35.31s15.837,35.31,35.31,35.31s35.31-15.837,35.31-35.31
	S275.474,17.655,256,17.655z"/>
<circle style="fill:#EFF2FA;" cx="256" cy="308.966" r="167.724"/>
<circle style="fill:#C7CFE2;" cx="256" cy="308.966" r="97.103"/>
<path style="fill:#707487;" d="M387.912,154.631l23.415-29.751l-13.879-10.914l-23.434,29.774
	c-31.026-22.2-68.564-35.87-109.196-37.607V52.966h-17.655v53.169c-40.581,1.739-78.078,15.379-109.08,37.534l-23.377-29.703
	l-13.879,10.914l23.353,29.673c-43.58,37.239-71.214,92.595-71.214,154.413C52.966,421.098,143.866,512,256,512
	s203.034-90.902,203.034-203.034C459.034,247.191,431.439,191.87,387.912,154.631z M256,476.69
	c-92.631,0-167.724-75.093-167.724-167.724S163.369,141.241,256,141.241s167.724,75.093,167.724,167.724S348.631,476.69,256,476.69z
	"/>
<path style="fill:#959CB3;" d="M264.828,61.793h-17.655c-4.879,0-8.828-3.948-8.828-8.828s3.948-8.828,8.828-8.828h17.655
	c4.879,0,8.828,3.948,8.828,8.828S269.707,61.793,264.828,61.793z"/>
<path style="fill:#FF6464;" d="M256,441.379c-73.017,0-132.414-59.396-132.414-132.414S182.983,176.552,256,176.552
	c35.31,0,68.552,13.784,93.594,38.819c3.448,3.448,3.448,9.035,0,12.483s-9.035,3.448-12.483,0
	c-21.706-21.699-50.508-33.647-81.111-33.647c-63.276,0-114.759,51.482-114.759,114.759S192.724,423.724,256,423.724
	c4.879,0,8.828,3.948,8.828,8.828C264.828,437.431,260.879,441.379,256,441.379z"/>
<path style="fill:#464655;" d="M220.69,353.103c-2.259,0-4.518-0.862-6.241-2.586c-3.448-3.448-3.448-9.035,0-12.483
	l122.664-122.663c3.448-3.448,9.035-3.448,12.483,0c3.448,3.448,3.448,9.035,0,12.483L226.931,350.517
	C225.207,352.242,222.948,353.103,220.69,353.103z"/>
<circle style="fill:#5B5D6E;" cx="256" cy="308.966" r="26.483"/>
<g>
	<path style="fill:#959CB3;" d="M105.975,139.337l21.528-16.941c3.831-3.015,4.493-8.565,1.478-12.396l-10.919-13.874
		c-3.015-3.831-8.565-4.493-12.396-1.478L84.138,111.59c-3.831,3.015-4.493,8.565-1.478,12.396l10.919,13.874
		C96.595,141.69,102.144,142.353,105.975,139.337z"/>
	<path style="fill:#959CB3;" d="M406.179,139.337l-21.528-16.941c-3.831-3.015-4.493-8.565-1.478-12.396l10.919-13.874
		c3.015-3.831,8.565-4.493,12.396-1.478l21.528,16.941c3.831,3.015,4.493,8.565,1.478,12.396l-10.919,13.874
		C415.561,141.69,410.01,142.353,406.179,139.337z"/>
</g>
</svg>