<?xml version="1.0" encoding="utf-8"?>
<svg id="master-artboard" viewBox="0 0 375.00604248046875 375" version="1.1" xmlns="http://www.w3.org/2000/svg" x="0px" y="0px" style="enable-background:new 0 0 1400 980;" width="375.00604248046875px" height="375px"><rect id="ee-background" x="0" y="0" width="375.00604248046875" height="375" style="fill: white; fill-opacity: 0; pointer-events: none;"/>


<g transform="matrix(0.2338275918005138, 0, 0, 0.2338275918005138, -0.6449450850486755, -0.000003153154466417618)"><path transform="matrix(0.9999999999999999, 0, 0, 0.9999999999999999, 192.54122924804685, 1189.932939725146)" d="M -15.6400000000001 2.359999999999916 C -10.1900000000001 0.5399999999999159 1244.53 2.0700000000000003 1245.48 4.25 C 1244.72 7.029999999999999 1068.8799999999999 350.00000000000006 1068.33 351.09000000000003 C 1062.6699999999998 360.50000000000006 1062.6699999999998 360.50000000000006 1058.5 361.89000000000004 C 1056.21 362.14000000000004 177.12999999999988 361.87 172.3099999999999 359.24 C 170.62999999999988 357 -15.6400000000001 7.079999999999916 -15.6400000000001 2.359999999999916 Z" fill="#CE2F2F"/><path style="fill: rgb(202, 48, 46); fill-opacity: 1; stroke: rgb(0, 0, 0); stroke-opacity: 1; stroke-width: 0; paint-order: fill;" d="M 881.8231811523438 548.0361328125"/><path style="fill: rgb(206, 47, 47); fill-opacity: 1; stroke: rgb(0, 0, 0); stroke-opacity: 1; stroke-width: 0; paint-order: fill;" d="M 410.44342041015625 1058.2447509765625 L 749.1559448242188 101.7652816772461 L 1034.6448364257812 869.708251953125" transform="matrix(1.0893269777297974, 0, 0, 1.0893269777297974, -22.303887351154117, -20.094703706505584)"/><path style="fill: rgb(206, 47, 47); fill-opacity: 1; stroke: rgb(0, 0, 0); stroke-opacity: 1; stroke-width: 0; paint-order: stroke;" d="M 1446.0228271484375 1039.8511962890625"/></g></svg>