<?xml version="1.0" standalone="no"?>
<!DOCTYPE svg PUBLIC "-//W3C//DTD SVG 20010904//EN"
 "http://www.w3.org/TR/2001/REC-SVG-20010904/DTD/svg10.dtd">
<svg version="1.0" xmlns="http://www.w3.org/2000/svg"
 width="512.000000pt" height="512.000000pt" viewBox="0 0 512.000000 512.000000"
 preserveAspectRatio="xMidYMid meet">

<g transform="translate(0.000000,512.000000) scale(0.100000,-0.100000)"
fill="#fff" stroke="none">
<path d="M404 3955 c-169 -37 -313 -163 -376 -331 -22 -58 -23 -67 -26 -644
-2 -412 0 -603 8 -645 37 -193 206 -364 398 -404 37 -8 444 -11 1357 -11
l1305 0 0 58 c0 78 31 220 69 317 67 174 213 359 369 467 l77 53 -3 128 -3
127 103 0 102 0 -67 68 c-37 37 -67 72 -67 77 0 13 162 175 175 175 5 0 40
-30 77 -67 l68 -67 0 102 0 102 125 0 125 0 0 -100 c0 -55 3 -100 7 -100 4 0
38 30 75 67 l68 68 90 -90 90 -90 -72 -72 -72 -73 102 0 102 0 0 -128 0 -128
68 -47 c159 -110 285 -265 367 -454 28 -63 35 -72 43 -57 29 55 33 147 30 724
-3 577 -4 586 -26 644 -64 171 -206 295 -380 332 -96 20 -4214 20 -4308 -1z
m746 -597 l0 -102 68 67 c37 37 72 67 77 67 13 0 175 -162 175 -175 0 -5 -30
-40 -67 -77 l-67 -68 102 0 102 0 0 -125 0 -125 -100 0 c-55 0 -100 -3 -100
-7 0 -4 30 -38 67 -75 l68 -68 -90 -90 -90 -90 -72 72 -73 72 0 -102 0 -102
-125 0 -125 0 0 102 0 103 -72 -73 -73 -72 -92 92 -93 93 72 72 72 73 -102 0
-102 0 0 125 0 125 102 0 102 0 -72 73 -72 72 90 90 90 90 68 -68 c37 -37 71
-67 75 -67 4 0 7 45 7 100 l0 100 125 0 125 0 0 -102z m1538 -2 l3 -100 69 69
70 70 90 -90 90 -90 -72 -72 -72 -73 102 0 102 0 0 -125 0 -125 -95 0 c-52 0
-95 -3 -95 -7 0 -4 30 -38 67 -75 l66 -67 -84 -85 c-46 -47 -88 -86 -93 -86
-6 0 -41 30 -78 67 l-68 67 0 -102 0 -102 -130 0 -130 0 0 102 0 102 -68 -67
c-37 -37 -72 -67 -77 -67 -5 0 -47 39 -93 86 l-84 87 66 66 c36 37 66 70 66
74 0 4 -43 7 -95 7 l-95 0 0 125 0 125 102 0 102 0 -72 73 -72 72 90 90 90 90
70 -70 70 -69 0 95 c0 53 3 99 7 103 4 3 61 5 127 4 l121 -3 3 -99z"/>
<path d="M3955 2674 c-158 -29 -298 -107 -413 -228 -140 -148 -211 -323 -212
-524 0 -122 24 -221 82 -342 45 -93 61 -115 147 -200 82 -82 110 -103 191
-143 127 -62 207 -81 350 -81 89 0 133 5 194 23 341 95 566 391 566 741 0 414
-315 744 -730 765 -62 3 -123 -1 -175 -11z m277 -437 l138 138 85 -87 c47 -47
85 -90 85 -94 0 -5 -60 -68 -132 -141 l-133 -133 133 -133 c72 -73 132 -136
132 -141 0 -5 -39 -47 -87 -92 l-88 -83 -135 134 -135 135 -135 -135 -135
-135 -90 90 -90 90 135 135 135 135 -135 135 -135 135 90 90 90 90 135 -135
135 -135 137 137z"/>
</g>
</svg>
