<?xml version="1.0" encoding="iso-8859-1"?>
<!-- Uploaded to: SVG Repo, www.svgrepo.com, Generator: SVG Repo Mixer Tools -->
<svg fill="#4d4d4f" version="1.1" id="Capa_1" xmlns="http://www.w3.org/2000/svg" xmlns:xlink="http://www.w3.org/1999/xlink" 
	 viewBox="0 0 490 490" xml:space="preserve">
<g id="line_12_">
	<path d="M191.128,391.35c28.956,14.485,108.595,35.571,156.385,31.62c47.79-3.951,124.52-67.175,139.005-88.245
		c14.485-21.07-18.819-23.703-52.123-6.584c-33.304,17.119-140.445,51.373-191.128,0c0,0,117.277,10.535,121.626,0
		c4.349-10.535-13.031-27.654-104.246-47.422c-91.215-19.753-156.385,0-156.385,0v126.449
		C104.246,407.153,162.173,376.865,191.128,391.35z"/>
	<rect y="280.704" width="69.503" height="135.698"/>
	<path d="M203.838,219.669c28.313,0,52.812-15.634,66.057-38.541l182.982,47.192l7.656-29.66l-22.662-5.849l13.107-50.531
		l-29.629-7.687l-13.107,50.577l-26.766-6.906l12.832-51.358l-29.691-7.426l-12.786,51.143l-72.32-18.65
		c0.352-2.94,0.903-5.834,0.903-8.866c0-42.216-34.345-76.562-76.562-76.562c-42.216,0-76.562,34.345-76.562,76.562
		C127.291,185.323,161.637,219.669,203.838,219.669z M203.838,97.17c25.327,0,45.937,20.61,45.937,45.937
		s-20.61,45.937-45.937,45.937c-25.327,0-45.937-20.61-45.937-45.937S178.511,97.17,203.838,97.17z"/>
</g>
</svg>